<?xml version="1.0" encoding="UTF-8" standalone="no"?>
<!DOCTYPE svg PUBLIC "-//W3C//DTD SVG 1.1//EN" "http://www.w3.org/Graphics/SVG/1.1/DTD/svg11.dtd">
<svg width="100%" height="100%" viewBox="0 0 80 80" version="1.1" xmlns="http://www.w3.org/2000/svg" xmlns:xlink="http://www.w3.org/1999/xlink" xml:space="preserve" xmlns:serif="http://www.serif.com/" style="fill-rule:evenodd;clip-rule:evenodd;stroke-linejoin:round;stroke-miterlimit:2;">
    <g transform="matrix(1,0,0,1,-116.095,-259.477)">
        <g transform="matrix(1,0,0,1,6.09548,-49.3229)">
            <g transform="matrix(1,0,0,1,-6.09548,49.3229)">
                <path d="M192.295,283.977C194.295,288.777 195.295,293.877 195.295,299.077C195.295,304.377 194.295,309.377 192.295,314.177C190.295,318.977 187.395,323.277 183.695,327.077C179.895,330.877 175.595,333.677 170.795,335.677C165.995,337.677 160.995,338.677 155.695,338.677C150.395,338.677 145.395,337.677 140.595,335.677C135.795,333.677 131.495,330.777 127.695,327.077C123.895,323.277 121.095,318.977 119.095,314.177C117.095,309.377 116.095,304.277 116.095,299.077C116.095,293.777 117.095,288.777 119.095,283.977C121.095,279.177 123.995,274.877 127.695,271.077C131.495,267.277 135.695,264.477 140.595,262.477C145.395,260.477 150.495,259.477 155.695,259.477C160.995,259.477 165.995,260.477 170.795,262.477C175.595,264.477 179.895,267.377 183.695,271.077C187.395,274.877 190.295,279.177 192.295,283.977Z" style="fill:rgb(250,166,1);fill-rule:nonzero;"/>
            </g>
        </g>
        <g transform="matrix(1,0,0,1,6.09548,-49.3229)">
            <g transform="matrix(0.413347,0,0,0.413347,149.6,348.85)">
                <g transform="matrix(1,0,0,1,-61.44,-44.43)">
                    <clipPath id="_clip1">
                        <rect x="0" y="0" width="122.88" height="88.86"/>
                    </clipPath>
                    <g clip-path="url(#_clip1)">
                        <path d="M7.05,0L115.83,0C119.674,0.038 122.819,3.205 122.83,7.05L122.83,81.81C122.84,83.236 122.415,84.632 121.61,85.81C121.465,86.187 121.24,86.529 120.95,86.81C120.755,86.996 120.532,87.152 120.29,87.27C119.029,88.334 117.43,88.919 115.78,88.92L7.05,88.92C3.224,88.882 0.088,85.746 0.05,81.92L0.05,7.05C0.061,3.205 3.206,0.038 7.05,0ZM6.75,78.84L43.53,40.62L6.75,9.54L6.75,78.84ZM49.07,45.39L9.77,83.45L112.77,83.45L75.22,45.39L64.22,54.6C63.224,55.427 61.766,55.427 60.77,54.6L49.07,45.39ZM80.67,40.55L116.13,79.15L116.13,9.2L80.67,40.55ZM10.21,5.41L62.39,47.7L112.27,5.41L10.21,5.41Z" style="fill:white;fill-rule:nonzero;"/>
                    </g>
                </g>
            </g>
        </g>
    </g>
</svg>
