<?xml version="1.0" encoding="UTF-8" standalone="no"?>
<!DOCTYPE svg PUBLIC "-//W3C//DTD SVG 1.1//EN" "http://www.w3.org/Graphics/SVG/1.1/DTD/svg11.dtd">
<svg width="100%" height="100%" viewBox="0 0 80 80" version="1.1" xmlns="http://www.w3.org/2000/svg" xmlns:xlink="http://www.w3.org/1999/xlink" xml:space="preserve" xmlns:serif="http://www.serif.com/" style="fill-rule:evenodd;clip-rule:evenodd;stroke-linejoin:round;stroke-miterlimit:2;">
    <g transform="matrix(1,0,0,1,-210.25,-210.4)">
        <g transform="matrix(1,0,0,1,-0.15,-2.84217e-14)">
            <path d="M286.6,234.9C288.6,239.7 289.6,244.7 289.6,250C289.6,255.3 288.6,260.3 286.6,265.1C284.6,269.9 281.7,274.2 278,278C274.2,281.8 270,284.6 265.1,286.6C260.3,288.6 255.3,289.6 250,289.6C244.7,289.6 239.7,288.6 234.9,286.6C230.1,284.6 225.8,281.7 222,278C218.2,274.2 215.4,270 213.4,265.1C211.4,260.3 210.4,255.3 210.4,250C210.4,244.7 211.4,239.7 213.4,234.9C215.4,230.1 218.3,225.8 222,222C225.8,218.2 230,215.4 234.9,213.4C239.7,211.4 244.7,210.4 250,210.4C255.3,210.4 260.3,211.4 265.1,213.4C269.9,215.4 274.2,218.3 278,222C281.7,225.8 284.6,230.1 286.6,234.9ZM260.8,236L260.8,229.4C259,229.2 257.1,229.1 255.1,229.1C251.2,229.1 248.5,230.5 246.8,233.3C245.9,234.9 245.4,236.7 245.4,238.7L245.4,244.4L239,244.4L239,251.8L245.4,251.8L245.4,270.9L253.1,270.9L253.1,251.8L259.5,251.8L260.5,244.4L253.1,244.4L253.1,240.2C253.1,239 253.2,238.3 253.3,238C253.3,237.9 253.4,237.7 253.6,237.3C254.1,236.4 255.3,236 257.3,236L260.8,236Z" style="fill:rgb(59,89,152);fill-rule:nonzero;"/>
        </g>
        <g transform="matrix(1,0,0,1,-0.15,-2.84217e-14)">
            <path d="M260.8,229.4L260.8,236L257.4,236C255.4,236 254.1,236.4 253.7,237.3C253.5,237.7 253.4,237.9 253.4,238C253.3,238.3 253.2,239 253.2,240.2L253.2,244.4L260.6,244.4L259.6,251.8L253.2,251.8L253.2,270.9L245.5,270.9L245.5,251.8L239.1,251.8L239.1,244.4L245.5,244.4L245.5,238.7C245.5,236.6 246,234.8 246.9,233.3C248.5,230.5 251.3,229.1 255.2,229.1C257.1,229.1 259,229.2 260.8,229.4Z" style="fill:white;fill-rule:nonzero;"/>
        </g>
    </g>
</svg>
