<?xml version="1.0" encoding="UTF-8" standalone="no"?>
<!DOCTYPE svg PUBLIC "-//W3C//DTD SVG 1.1//EN" "http://www.w3.org/Graphics/SVG/1.1/DTD/svg11.dtd">
<svg width="100%" height="100%" viewBox="0 0 79 80" version="1.1" xmlns="http://www.w3.org/2000/svg" xmlns:xlink="http://www.w3.org/1999/xlink" xml:space="preserve" xmlns:serif="http://www.serif.com/" style="fill-rule:evenodd;clip-rule:evenodd;stroke-linejoin:round;stroke-miterlimit:2;">
    <g transform="matrix(1,0,0,1,-9.8,-407.2)">
        <path d="M85.8,431.7C87.8,436.5 88.8,441.5 88.8,446.8C88.8,452.1 87.8,457.1 85.8,461.9C83.8,466.7 80.9,471 77.2,474.8C73.4,478.6 69.2,481.4 64.4,483.4C59.6,485.4 54.6,486.4 49.3,486.4C44,486.4 39,485.4 34.2,483.4C29.4,481.4 25.1,478.5 21.4,474.8C17.6,471 14.8,466.7 12.8,461.9C10.8,457.1 9.8,452 9.8,446.8C9.8,441.5 10.8,436.5 12.8,431.7C14.8,426.9 17.7,422.6 21.4,418.8C25.2,415 29.4,412.2 34.2,410.2C39,408.2 44.1,407.2 49.3,407.2C54.6,407.2 59.6,408.2 64.4,410.2C69.2,412.2 73.5,415.1 77.2,418.8C80.9,422.6 83.8,426.9 85.8,431.7ZM69.1,453.4L69.1,440.6C69.1,440 69.1,439.4 69,438.7C68.9,436.7 68.6,435 68.1,433.9C67.6,432.6 66.8,431.4 65.8,430.4C64.7,429.3 63.6,428.6 62.3,428.1C61.1,427.6 59.5,427.3 57.4,427.2C56.7,427.2 56.1,427.2 55.5,427.1L42.7,427.1C42.1,427.1 41.5,427.1 40.8,427.2C38.7,427.3 37.1,427.6 35.9,428.1C34.6,428.6 33.4,429.4 32.4,430.4C31.3,431.5 30.6,432.7 30.1,433.9C29.6,435.1 29.3,436.7 29.2,438.7C29.2,439.4 29.2,440 29.1,440.6L29.1,453.4C29.1,454 29.1,454.6 29.2,455.3C29.3,457.3 29.6,459 30.1,460.1C30.6,461.4 31.4,462.6 32.4,463.6C33.5,464.7 34.6,465.4 35.9,465.9C37.1,466.4 38.7,466.7 40.8,466.8C41.5,466.8 42.1,466.9 42.7,466.9L55.5,466.9C56.1,466.9 56.7,466.8 57.4,466.8C59.5,466.7 61.1,466.4 62.3,465.9C63.6,465.4 64.8,464.6 65.8,463.6C66.9,462.5 67.6,461.3 68.1,460.1C68.6,458.9 68.9,457.3 69,455.3C69,454.6 69.1,454 69.1,453.4Z" style="fill:rgb(188,42,141);fill-rule:nonzero;"/>
        <path d="M69.1,443L69.1,453.5C69.1,454.1 69.1,454.7 69,455.4C68.9,457.4 68.6,459.1 68.1,460.2C67.6,461.5 66.8,462.7 65.8,463.7C64.7,464.8 63.6,465.5 62.3,466C61.1,466.5 59.5,466.8 57.4,466.9C56.7,466.9 56.1,467 55.5,467L42.7,467C42.1,467 41.5,466.9 40.8,466.9C38.7,466.8 37.1,466.5 35.9,466C34.6,465.5 33.4,464.7 32.4,463.7C31.3,462.6 30.6,461.4 30.1,460.2C29.6,459 29.3,457.4 29.2,455.4C29.2,454.7 29.2,454.1 29.1,453.5L29.1,440.7C29.1,440.1 29.1,439.5 29.2,438.8C29.3,436.8 29.6,435.1 30.1,434C30.6,432.7 31.4,431.5 32.4,430.5C33.5,429.4 34.6,428.7 35.9,428.2C37.1,427.7 38.7,427.4 40.8,427.3C41.5,427.3 42.1,427.3 42.7,427.2L55.5,427.2C56.1,427.2 56.7,427.2 57.4,427.3C59.4,427.4 61.1,427.7 62.3,428.2C63.6,428.7 64.8,429.5 65.8,430.5C66.9,431.6 67.6,432.8 68.1,434C68.6,435.2 68.9,436.8 69,438.8C69,439.5 69.1,440.1 69.1,440.7C69,441.3 69.1,442 69.1,443ZM65.5,451.1L65.5,440.9C65.5,440.3 65.4,439.7 65.4,439.1C65.3,437.2 65,436 64.7,435.4C64.4,434.5 63.9,433.8 63.2,433.1C62.6,432.4 61.8,431.9 60.9,431.6C60.3,431.3 59,431.1 57.2,430.9C56.5,430.9 55.9,430.8 55.4,430.8L42.7,430.8C42.2,430.8 41.7,430.8 41.1,430.9C39.2,431 38,431.3 37.4,431.6C36.5,431.9 35.8,432.4 35.1,433.1C34.4,433.7 33.9,434.5 33.6,435.4C33.3,436 33.1,437.3 32.9,439.1C32.9,439.8 32.8,440.4 32.8,440.9L32.8,453.3C32.8,453.9 32.8,454.5 32.9,455.1C33,456.9 33.3,458.2 33.6,458.8C33.9,459.7 34.4,460.5 35.1,461.1C35.8,461.7 36.5,462.2 37.4,462.6C38,462.9 39.2,463.1 41.1,463.3C41.8,463.3 42.4,463.3 42.9,463.4L55.3,463.4C55.9,463.4 56.5,463.4 57.1,463.3C59,463.2 60.2,462.9 60.8,462.6C61.7,462.3 62.4,461.8 63.1,461.1C63.8,460.4 64.3,459.7 64.6,458.8C64.9,458.2 65.2,457 65.3,455.1C65.3,454.4 65.4,453.8 65.4,453.3C65.4,452.8 65.5,452 65.5,451.1Z" style="fill:white;fill-rule:nonzero;"/>
        <path d="M65.5,447L65.5,453.2C65.5,453.7 65.4,454.4 65.4,455C65.3,456.8 65,458.1 64.7,458.7C64.4,459.6 63.9,460.4 63.2,461C62.6,461.7 61.8,462.2 60.9,462.5C60.3,462.8 59,463 57.2,463.2C56.5,463.2 55.9,463.2 55.4,463.3L43,463.3C42.4,463.3 41.8,463.3 41.2,463.2C39.3,463.1 38.1,462.8 37.5,462.5C36.6,462.1 35.9,461.6 35.2,461C34.5,460.3 34,459.6 33.7,458.7C33.4,458.1 33.2,456.9 33,455C33,454.3 32.9,453.7 32.9,453.2L32.9,440.8C32.9,440.2 32.9,439.6 33,439C33.1,437.1 33.4,435.9 33.7,435.3C34,434.4 34.5,433.7 35.2,433C35.9,432.3 36.6,431.8 37.5,431.5C38.1,431.2 39.3,431 41.2,430.8C41.8,430.7 42.3,430.7 42.8,430.7L55.5,430.7C56.1,430.7 56.7,430.8 57.3,430.8C59.2,430.9 60.4,431.2 61,431.5C61.9,431.8 62.6,432.3 63.3,433C64,433.6 64.5,434.4 64.8,435.3C65.1,435.9 65.4,437.2 65.5,439C65.5,439.7 65.6,440.3 65.6,440.8L65.6,443C65.5,443.9 65.5,445.3 65.5,447ZM62.2,436.4C62.2,435.8 62,435.2 61.5,434.7C61,434.2 60.5,434 59.8,434C59.1,434 58.6,434.2 58.1,434.7C57.6,435.2 57.4,435.7 57.4,436.4C57.4,437.1 57.6,437.6 58.1,438.1C58.6,438.6 59.1,438.8 59.8,438.8C60.4,438.8 61,438.6 61.5,438.1C61.9,437.6 62.2,437.1 62.2,436.4ZM59.4,447C59.4,444.2 58.4,441.7 56.4,439.7C54.4,437.7 52,436.7 49.1,436.7C46.3,436.7 43.9,437.7 41.9,439.7C39.9,441.7 38.9,444.1 38.9,447C38.9,449.9 39.9,452.3 41.9,454.3C43.9,456.3 46.3,457.3 49.1,457.3C51.9,457.3 54.4,456.3 56.4,454.3C58.4,452.3 59.4,449.9 59.4,447Z" style="fill:rgb(188,42,141);fill-rule:nonzero;"/>
        <path d="M61.5,434.7C62,435.2 62.2,435.7 62.2,436.4C62.2,437.1 62,437.6 61.5,438.1C61,438.6 60.5,438.8 59.8,438.8C59.1,438.8 58.6,438.6 58.1,438.1C57.6,437.6 57.4,437.1 57.4,436.4C57.4,435.8 57.6,435.2 58.1,434.7C58.6,434.2 59.1,434 59.8,434C60.5,434 61,434.3 61.5,434.7Z" style="fill:white;fill-rule:nonzero;"/>
        <path d="M56.4,439.8C58.4,441.8 59.4,444.2 59.4,447.1C59.4,450 58.4,452.4 56.4,454.4C54.4,456.4 52,457.4 49.1,457.4C46.3,457.4 43.9,456.4 41.9,454.4C39.9,452.4 38.9,450 38.9,447.1C38.9,444.3 39.9,441.8 41.9,439.8C43.9,437.8 46.3,436.8 49.1,436.8C52,436.8 54.4,437.8 56.4,439.8ZM55.8,447C55.8,445.2 55.1,443.6 53.8,442.3C52.5,441 50.9,440.3 49.1,440.3C47.3,440.3 45.7,441 44.4,442.3C43.1,443.6 42.4,445.2 42.4,447C42.4,448.8 43.1,450.4 44.4,451.7C45.7,453 47.3,453.7 49.1,453.7C50.9,453.7 52.5,453 53.8,451.7C55.1,450.5 55.8,448.9 55.8,447Z" style="fill:white;fill-rule:nonzero;"/>
        <path d="M53.8,442.4C55.1,443.7 55.8,445.3 55.8,447.1C55.8,448.9 55.1,450.5 53.8,451.8C52.5,453.1 50.9,453.8 49.1,453.8C47.3,453.8 45.7,453.1 44.4,451.8C43.1,450.5 42.4,448.9 42.4,447.1C42.4,445.3 43.1,443.7 44.4,442.4C45.7,441.1 47.3,440.4 49.1,440.4C51,440.4 52.5,441 53.8,442.4Z" style="fill:rgb(188,42,141);fill-rule:nonzero;"/>
    </g>
</svg>
