<?xml version="1.0" encoding="UTF-8" standalone="no"?>
<!DOCTYPE svg PUBLIC "-//W3C//DTD SVG 1.1//EN" "http://www.w3.org/Graphics/SVG/1.1/DTD/svg11.dtd">
<svg width="100%" height="100%" viewBox="0 0 80 80" version="1.1" xmlns="http://www.w3.org/2000/svg" xmlns:xlink="http://www.w3.org/1999/xlink" xml:space="preserve" xmlns:serif="http://www.serif.com/" style="fill-rule:evenodd;clip-rule:evenodd;stroke-linejoin:round;stroke-miterlimit:2;">
    <g transform="matrix(1,0,0,1,-110,-112)">
        <path d="M186.2,136.5C188.2,141.3 189.2,146.3 189.2,151.6C189.2,156.9 188.2,161.9 186.2,166.7C184.2,171.5 181.3,175.8 177.6,179.6C173.8,183.4 169.5,186.2 164.7,188.2C159.9,190.2 154.9,191.2 149.6,191.2C144.3,191.2 139.3,190.2 134.5,188.2C129.7,186.2 125.4,183.3 121.6,179.6C117.8,175.8 115,171.5 113,166.7C111,161.9 110,156.9 110,151.6C110,146.3 111,141.3 113,136.5C115,131.7 117.9,127.4 121.6,123.6C125.4,119.8 129.6,117 134.5,115C139.3,113 144.4,112 149.6,112C154.9,112 159.9,113 164.7,115C169.5,117 173.8,119.9 177.6,123.6C181.3,127.4 184.2,131.7 186.2,136.5ZM168.5,169.3L168.5,155.2C168.5,151.4 167.6,148.5 165.9,146.8C164.1,145 161.9,144.1 159.2,144.1C157,144.1 155.3,144.6 154.2,145.5C153.1,146.4 152.3,147.3 151.7,148.2L151.7,144.7L143.5,144.7L143.5,169.3L151.7,169.3L151.7,154.4C151.7,154 151.8,153.7 151.9,153.5C152.2,152.7 152.7,152.1 153.4,151.4C154.1,150.8 155,150.5 156.2,150.5C157.7,150.5 158.7,151 159.3,152.1C159.9,153.2 160.2,154.5 160.2,156.2L160.2,169.3L168.5,169.3ZM139,169.3L139,144.6L130.7,144.6L130.7,169.3L139,169.3ZM138.3,139.9C139.2,139.1 139.6,138.1 139.6,136.9C139.5,135.6 139,134.6 138.2,133.8C137.4,133 136.3,132.6 135,132.6C133.6,132.6 132.4,133 131.6,133.8C130.7,134.6 130.3,135.6 130.3,136.9C130.3,138.1 130.7,139.1 131.5,139.9C132.3,140.7 133.4,141.1 134.9,141.1C136.3,141.1 137.4,140.8 138.3,139.9Z" style="fill:rgb(0,123,181);fill-rule:nonzero;"/>
        <path d="M168.5,155.2L168.5,169.3L160.2,169.3L160.2,156.2C160.2,154.6 159.9,153.2 159.3,152.1C158.7,151 157.7,150.5 156.2,150.5C155,150.5 154.1,150.8 153.4,151.4C152.7,152 152.2,152.7 151.9,153.5C151.8,153.8 151.7,154.1 151.7,154.4L151.7,169.3L143.5,169.3L143.5,144.7L151.7,144.7L151.7,148.2C151.6,148.2 151.6,148.2 151.6,148.3L151.7,148.3L151.7,148.2C152.3,147.3 153.1,146.4 154.2,145.5C155.3,144.6 156.9,144.1 159.2,144.1C161.9,144.1 164.2,145 165.9,146.8C167.7,148.5 168.5,151.3 168.5,155.2Z" style="fill:white;fill-rule:nonzero;"/>
        <path d="M151.8,148.1L151.8,148.2L151.7,148.2C151.6,148.2 151.7,148.1 151.8,148.1Z" style="fill-rule:nonzero;"/>
        <rect x="130.7" y="144.6" width="8.3" height="24.7" style="fill:white;"/>
        <path d="M139.6,137C139.6,138.2 139.2,139.2 138.3,140C137.4,140.8 136.3,141.2 134.9,141.2C133.5,141.2 132.3,140.8 131.5,140C130.7,139.2 130.3,138.2 130.3,137C130.3,135.7 130.7,134.7 131.6,133.9C132.5,133.1 133.6,132.7 135,132.7C136.3,132.7 137.3,133.1 138.2,133.9C139,134.7 139.5,135.7 139.6,137Z" style="fill:white;fill-rule:nonzero;"/>
    </g>
</svg>
