<?xml version="1.0" encoding="UTF-8" standalone="no"?>
<!DOCTYPE svg PUBLIC "-//W3C//DTD SVG 1.1//EN" "http://www.w3.org/Graphics/SVG/1.1/DTD/svg11.dtd">
<svg width="100%" height="100%" viewBox="0 0 80 80" version="1.1" xmlns="http://www.w3.org/2000/svg" xmlns:xlink="http://www.w3.org/1999/xlink" xml:space="preserve" xmlns:serif="http://www.serif.com/" style="fill-rule:evenodd;clip-rule:evenodd;stroke-linejoin:round;stroke-miterlimit:2;">
    <g transform="matrix(1,0,0,1,-411.3,-13.6)">
        <path d="M487.4,38.1C489.4,42.9 490.4,47.9 490.4,53.2C490.4,58.5 489.4,63.5 487.4,68.3C485.4,73.1 482.5,77.4 478.8,81.2C475,85 470.8,87.8 466,89.8C461.2,91.8 456.1,92.8 450.9,92.8C445.6,92.8 440.6,91.8 435.8,89.8C431,87.8 426.7,84.9 422.9,81.2C419.1,77.4 416.3,73.1 414.3,68.3C412.3,63.5 411.3,58.5 411.3,53.2C411.3,47.9 412.3,42.9 414.3,38.1C416.3,33.3 419.2,29 422.9,25.2C426.7,21.4 431,18.6 435.8,16.6C440.6,14.6 445.7,13.6 450.9,13.6C456.2,13.6 461.2,14.6 466,16.6C470.8,18.6 475.1,21.5 478.8,25.2C482.6,29 485.4,33.3 487.4,38.1ZM471.7,40.2C469.5,41.1 467.9,41.6 466.8,41.6L466.8,41.5C467.2,41.3 467.8,40.8 468.6,40.1C469.5,39 470.1,37.9 470.4,36.8C469.3,37.5 468.1,38 467,38.4C465.9,38.7 465.2,38.9 465,38.9C463.1,37.1 461,36.3 458.7,36.3C456.4,36.3 454.4,37.1 452.7,38.7C451,40.4 450.1,42.4 450.1,44.8C450.1,45.4 450.2,46 450.3,46.8C449.6,46.8 448.4,46.7 446.5,46.4C443.4,45.6 440.6,44.5 438.3,43C436.5,41.9 434.5,40.1 432.6,37.9C431.8,39.3 431.5,40.7 431.5,42C431.5,44.1 432.2,46 433.5,47.7C434.2,48.5 434.7,49 435.2,49.2L435.2,49.3C434.1,49.3 432.8,48.9 431.4,48.3C431.4,50.7 432.3,52.8 434,54.5C435.1,55.5 436.1,56.1 437,56.4C437.7,56.6 438.1,56.7 438.2,56.7C438.2,56.8 437.9,56.9 437.2,57L435.9,57C435.5,57 435,57 434.3,56.9C435,58.9 436.2,60.4 437.9,61.5C439.4,62.4 440.9,62.9 442.4,62.9C441.5,63.6 440.7,64.1 440,64.5C437.4,65.9 434.7,66.6 432.1,66.6C431.2,66.6 430.4,66.6 429.8,66.5C433.8,69.1 438.2,70.3 443,70.3C448.9,70.3 454.2,68.4 458.8,64.5C462.1,61.5 464.5,58 465.9,54C466.9,51.2 467.3,48.7 467.3,46.2L467.3,44.7C467.8,44.4 468.6,43.7 469.7,42.7C470.6,41.6 471.3,40.8 471.7,40.2Z" style="fill:rgb(0,172,237);fill-rule:nonzero;"/>
        <path d="M471.7,40.2C471.3,40.9 470.6,41.7 469.8,42.6C468.7,43.7 467.9,44.4 467.4,44.6L467.4,46.1C467.4,48.5 466.9,51.1 466,53.9C464.6,57.9 462.2,61.4 458.9,64.4C454.3,68.2 449.1,70.2 443.1,70.2C438.3,70.2 433.9,68.9 429.9,66.4C430.5,66.5 431.2,66.5 432.2,66.5C434.8,66.5 437.5,65.8 440.1,64.4C440.8,64 441.7,63.5 442.5,62.8C441,62.8 439.5,62.3 438,61.4C436.3,60.3 435.1,58.8 434.4,56.8C435,56.9 435.5,56.9 436,56.9L437.3,56.9C437.9,56.8 438.3,56.7 438.3,56.6C438.2,56.6 437.8,56.5 437.1,56.3C436.2,56 435.2,55.4 434.1,54.4C432.4,52.6 431.5,50.6 431.5,48.2C432.9,48.9 434.1,49.2 435.3,49.2L435.3,49.1C434.9,48.9 434.3,48.3 433.6,47.6C432.3,45.9 431.6,44 431.6,41.9C431.6,40.6 432,39.2 432.7,37.8C434.7,40.1 436.6,41.8 438.4,42.9C440.8,44.4 443.5,45.5 446.6,46.3C448.4,46.6 449.7,46.7 450.4,46.7C450.2,46 450.2,45.3 450.2,44.7C450.2,42.3 451.1,40.3 452.8,38.6C454.5,37 456.5,36.2 458.8,36.2C461.1,36.2 463.2,37.1 465.1,38.8C465.3,38.8 465.9,38.6 467.1,38.3C468.3,37.9 469.4,37.4 470.5,36.7C470.2,37.8 469.6,38.9 468.7,40C467.8,40.7 467.2,41.2 466.9,41.4L466.9,41.5C467.9,41.5 469.5,41.1 471.7,40.2Z" style="fill:white;fill-rule:nonzero;"/>
    </g>
</svg>
