<?xml version="1.0" encoding="UTF-8" standalone="no"?>
<!DOCTYPE svg PUBLIC "-//W3C//DTD SVG 1.1//EN" "http://www.w3.org/Graphics/SVG/1.1/DTD/svg11.dtd">
<svg width="100%" height="100%" viewBox="0 0 80 80" version="1.1" xmlns="http://www.w3.org/2000/svg" xmlns:xlink="http://www.w3.org/1999/xlink" xml:space="preserve" xmlns:serif="http://www.serif.com/" style="fill-rule:evenodd;clip-rule:evenodd;stroke-linejoin:round;stroke-miterlimit:2;">
    <g transform="matrix(1,0,0,1,-310.65,-407.2)">
        <g transform="matrix(1,0,0,1,-0.15,-2.84217e-14)">
            <path d="M387,431.7C389,436.5 390,441.5 390,446.8C390,452.1 389,457.1 387,461.9C385,466.7 382.1,471 378.4,474.8C374.6,478.6 370.3,481.4 365.5,483.4C360.7,485.4 355.6,486.4 350.4,486.4C345.1,486.4 340.1,485.4 335.3,483.4C330.5,481.4 326.2,478.5 322.4,474.8C318.6,471 315.8,466.7 313.8,461.9C311.8,457.1 310.8,452 310.8,446.8C310.8,441.5 311.8,436.5 313.8,431.7C315.8,426.9 318.7,422.6 322.4,418.8C326.2,415 330.4,412.2 335.3,410.2C340.1,408.2 345.1,407.2 350.4,407.2C355.7,407.2 360.7,408.2 365.5,410.2C370.3,412.2 374.6,415.1 378.4,418.8C382.1,422.6 385,426.9 387,431.7ZM371.3,447.1L371.3,444.6C370.8,439.3 368.8,435 365.3,431.4C361.9,428 357.5,426 352.1,425.5L349.6,425.5C343.9,426.1 339.5,428.1 336.1,431.7C332.3,435.8 330.3,440.5 330.3,445.7C330.3,448.9 331.1,452.1 332.7,455.2C332.9,455.6 332.9,456 332.9,456.4C332.9,456.8 332.8,457.3 332.7,457.7C330.5,464.1 329.4,467.3 329.4,467.3L329.6,467.1C329.6,467.2 329.7,467.3 329.7,467.3C331.1,466.8 333,466.2 335.3,465.5C338.3,464.5 340.2,463.9 340.9,463.7C344.3,465.4 347.6,466.3 350.8,466.3L351.4,466.3C355.2,466.1 358.5,465.2 361.5,463.3C367.3,459.6 370.6,454.3 371.3,447.1Z" style="fill:rgb(18,175,10);fill-rule:nonzero;"/>
        </g>
        <g transform="matrix(1,0,0,1,-0.15,-2.84217e-14)">
            <path d="M371.3,444.6L371.3,447.1C370.6,454.2 367.3,459.6 361.5,463.2C358.5,465 355.2,466 351.4,466.2L350.8,466.2C347.6,466.2 344.3,465.3 340.9,463.6C340.2,463.8 338.3,464.4 335.3,465.4C333,466.1 331.1,466.7 329.7,467.2C329.6,467.2 329.6,467.1 329.6,467L329.4,467.2C329.4,467.2 330.5,463.9 332.7,457.6C332.8,457.2 332.9,456.8 332.9,456.3C332.9,455.9 332.8,455.5 332.7,455.1C331.1,451.9 330.3,448.7 330.3,445.6C330.4,440.4 332.3,435.7 336.1,431.6C339.4,428.1 343.9,426 349.6,425.4L352.1,425.4C357.5,425.9 361.9,427.8 365.3,431.3C368.8,435 370.8,439.3 371.3,444.6ZM367.4,450.7C367.9,448.9 368.1,447.2 368.1,445.6C368.1,441.7 366.7,438.2 363.8,434.9C360.4,430.8 356.1,428.8 350.7,428.8L349.3,428.8C346.2,429 343.3,430 340.7,431.9C335.9,435.4 333.4,440 333.4,445.6C333.4,446.3 333.4,446.9 333.5,447.6C333.7,449.9 334.4,452.1 335.5,454.2C336.3,455.4 336.6,456 336.7,456L336.1,457.6C335.2,460.4 334.7,462 334.6,462.2L341.2,460.1C343.9,461.7 346.4,462.6 348.7,462.9C349.3,463 349.9,463 350.5,463C352.9,463 355.3,462.5 357.5,461.5C362.6,459.3 365.9,455.7 367.4,450.7Z" style="fill:white;fill-rule:nonzero;"/>
        </g>
        <g transform="matrix(1,0,0,1,-0.15,-2.84217e-14)">
            <path d="M368.1,445.6C368.1,447.2 367.9,448.9 367.4,450.7C365.9,455.7 362.6,459.3 357.6,461.5C355.4,462.5 353.1,463 350.6,463C350,463 349.4,463 348.8,462.9C346.5,462.6 343.9,461.7 341.3,460.1L334.7,462.2C334.8,461.9 335.3,460.4 336.2,457.6L336.8,456C336.8,456 336.4,455.4 335.6,454.2C334.5,452.1 333.8,449.9 333.6,447.6C333.5,447 333.5,446.3 333.5,445.6C333.5,440 335.9,435.4 340.8,431.9C343.4,430 346.3,429 349.4,428.8L350.8,428.8C356.1,428.8 360.5,430.8 363.9,434.9C366.7,438.1 368.1,441.7 368.1,445.6ZM361.1,451.1L361.1,450.6C360.8,450.3 360.7,450.2 360.7,450.2C360.7,450.2 360.1,449.9 358.9,449.3C357.4,448.6 356.5,448.2 356.3,448.2C356.1,448.2 355.6,448.6 355,449.4C354.3,450.3 353.9,450.7 353.7,450.7L353.6,450.7C353.2,450.7 352.4,450.4 351.2,449.7C349.9,449 348.6,447.9 347.5,446.4C346.6,445.2 346.1,444.4 346.1,444.1L347,442.9C347.5,442.4 347.8,441.9 347.8,441.5C347.8,441.4 347.5,440.5 346.8,438.9C346.2,437.5 345.7,436.7 345.5,436.6C345.2,436.5 344.9,436.4 344.6,436.4C344.3,436.4 343.9,436.4 343.5,436.5C341.8,437 340.9,438.6 340.9,441.2C340.9,442.7 341.7,444.6 343.3,446.9C345.5,450 348,452.2 350.6,453.4C352.6,454.4 354.4,455 355.8,455.2L356.3,455.2C357.1,455.2 358,455 359,454.5C360.4,453.9 361.1,452.7 361.1,451.1Z" style="fill:rgb(18,175,10);fill-rule:nonzero;"/>
        </g>
        <g transform="matrix(1,0,0,1,-0.15,-2.84217e-14)">
            <path d="M361.1,450.6L361.1,451.1C361.1,452.7 360.3,453.9 358.9,454.7C357.9,455.2 357,455.4 356.2,455.4L355.7,455.4C354.2,455.2 352.5,454.6 350.5,453.6C347.9,452.4 345.4,450.2 343.2,447.1C341.6,444.8 340.8,442.9 340.8,441.4C340.8,438.7 341.7,437.2 343.4,436.7C343.8,436.6 344.1,436.6 344.5,436.6C344.9,436.6 345.2,436.7 345.4,436.8C345.6,436.9 346,437.7 346.7,439.1C347.4,440.7 347.7,441.6 347.7,441.7C347.7,442.1 347.4,442.6 346.9,443.1L346,444.3C346,444.6 346.5,445.4 347.4,446.6C348.5,448.1 349.8,449.2 351.1,449.9C352.3,450.6 353.1,450.9 353.5,450.9L353.6,450.9C353.8,450.9 354.2,450.4 354.9,449.6C355.6,448.8 356,448.4 356.2,448.4C356.5,448.4 357.4,448.8 358.8,449.5C360,450.1 360.6,450.4 360.6,450.4C360.6,450.4 360.8,450.3 361.1,450.6Z" style="fill:white;fill-rule:nonzero;"/>
        </g>
    </g>
</svg>
